<?xml version="1.0" encoding="iso-8859-1"?>
<!-- Generator: Adobe Illustrator 19.0.0, SVG Export Plug-In . SVG Version: 6.00 Build 0)  -->
<svg version="1.1" id="Capa_1" xmlns="http://www.w3.org/2000/svg" xmlns:xlink="http://www.w3.org/1999/xlink" x="0px" y="0px"
	 viewBox="0 0 512 512" style="enable-background:new 0 0 512 512;" xml:space="preserve">
<circle style="fill:#76C8DA;" cx="256" cy="256" r="256"/>
<path style="fill:#38979E;" d="M508.349,299.222L396.721,187.596v-0.072l-108.389-47.22c-92.859,1.721-167.026,21.944-173.053,47.22
	v184.174l140.374,140.299c0.116,0,0.231,0.004,0.347,0.004C382.652,512,487.805,420.022,508.349,299.222z"/>
<path style="fill:#F7DC4D;" d="M396.721,187.523l-108.389-47.22c-92.859,1.721-167.026,21.944-173.053,47.22H396.721z"/>
<rect x="115.279" y="187.522" style="fill:#EDB937;" width="281.442" height="184.172"/>
<circle style="fill:#DF871E;" cx="179.447" cy="237.932" r="25.867"/>
<path style="fill:#C27526;" d="M167.53,247.228c0-14.284,11.579-25.863,25.863-25.863c2.277,0,4.483,0.297,6.588,0.849
	c-4.727-6.168-12.164-10.148-20.536-10.148c-14.284,0-25.863,11.579-25.863,25.863c0,12.006,8.183,22.1,19.275,25.013
	C169.517,258.586,167.53,253.141,167.53,247.228z"/>
<circle style="fill:#DF871E;" cx="285.208" cy="260.112" r="25.867"/>
<path style="fill:#C27526;" d="M273.294,269.407c0-14.284,11.579-25.863,25.863-25.863c2.277,0,4.483,0.297,6.588,0.849
	c-4.727-6.168-12.164-10.148-20.536-10.148c-14.284,0-25.863,11.579-25.863,25.863c0,12.006,8.183,22.1,19.275,25.013
	C275.282,280.766,273.294,275.32,273.294,269.407z"/>
<circle style="fill:#DF871E;" cx="213.093" cy="328.57" r="15.715"/>
<path style="fill:#C27526;" d="M205.857,334.215c0-8.679,7.036-15.715,15.715-15.715c1.384,0,2.724,0.18,4.002,0.516
	c-2.872-3.747-7.391-6.166-12.478-6.166c-8.679,0-15.714,7.036-15.714,15.714c0,7.296,4.972,13.428,11.712,15.198
	C207.065,341.117,205.857,337.807,205.857,334.215z"/>
<circle style="fill:#DF871E;" cx="339.689" cy="311.43" r="15.715"/>
<path style="fill:#C27526;" d="M332.454,317.083c0-8.679,7.036-15.715,15.714-15.715c1.384,0,2.724,0.18,4.003,0.516
	c-2.872-3.747-7.391-6.166-12.478-6.166c-8.679,0-15.715,7.036-15.715,15.714c0,7.296,4.972,13.428,11.712,15.198
	C333.662,323.984,332.454,320.676,332.454,317.083z"/>
<g>
</g>
<g>
</g>
<g>
</g>
<g>
</g>
<g>
</g>
<g>
</g>
<g>
</g>
<g>
</g>
<g>
</g>
<g>
</g>
<g>
</g>
<g>
</g>
<g>
</g>
<g>
</g>
<g>
</g>
</svg>
